<svg xmlns="http://www.w3.org/2000/svg" width="12" height="21" viewBox="0 0 12 21">
    <path fill="#FFF" fill-rule="evenodd" d="M10.666.968L8.007.964c-2.986 0-4.916 1.934-4.916 4.929v2.272H.418A.413.413 0 0 0 0 8.574v3.292c0 .226.187.408.418.408h2.673v8.309c0 .225.187.408.418.408h3.487a.413.413 0 0 0 .418-.408v-8.309h3.125a.413.413 0 0 0 .418-.408l.001-3.292a.404.404 0 0 0-.122-.29.423.423 0 0 0-.296-.119H7.414V6.24c0-.926.226-1.396 1.46-1.396h1.791c.23 0 .418-.184.418-.41V1.378a.413.413 0 0 0-.417-.409z"/>
</svg>
