<svg xmlns="http://www.w3.org/2000/svg" width="24" height="22" viewBox="0 0 24 22">
    <path fill="#000" fill-rule="evenodd" d="M5.056 0L6.74 5.056v3.37h1.123v-3.37L9.55 0H8.426L7.303 3.37 6.179 0H5.056zm6.179 2.247c-.6 0-.894.094-1.26.394-.351.298-.449.526-.426 1.291v2.809c0 .56.092.928.43 1.256.352.325.683.429 1.256.429.598 0 .925-.104 1.262-.43.353-.314.423-.695.423-1.255V3.932c0-.495-.088-.966-.427-1.28-.352-.323-.713-.405-1.258-.405zm2.808 0v5.056c0 .546.55 1.123 1.124 1.123.573 0 .875-.288 1.123-.562v.562h1.124v-6.18H16.29v4.495c-.006.383-.458.562-.562.562-.116 0-.561-.024-.561-.562V2.247h-1.124zM11.235 3.37c.168 0 .561 0 .561.562v2.809c0 .544-.38.562-.561.562-.169 0-.562-.008-.562-.562V3.932c0-.458.243-.562.562-.562zM3.37 9.55C1.353 9.55 0 10.886 0 12.92v5.336c0 2.033 1.353 3.652 3.37 3.652h16.852c2.018 0 3.37-1.339 3.37-3.37V12.92c0-2.033-1.352-3.37-3.37-3.37H3.37zm1.124 2.246h3.37v1.124H6.741v6.74H5.617v-6.74H4.494v-1.124zm7.864 0h1.124v2.247c.129-.202.323-.36.505-.452a1.2 1.2 0 0 1 .547-.143c.364 0 .651.13.846.377.196.248.348.576.348 1.06v3.371c0 .417-.14.675-.323.899-.18.22-.45.502-.8.506-.59.006-.907-.309-1.123-.562v.562h-1.124v-7.865zm-4.494 1.686h1.124v4.493c0 .13.15.566.561.562.457-.004.46-.43.562-.562v-4.493h1.124v6.179H10.11v-.562c-.208.246-.316.322-.55.439-.234.13-.47.123-.69.123-.273 0-.582-.246-.726-.43-.13-.169-.28-.343-.28-.694v-5.055zm10.222 0c.534 0 .91.113 1.193.412.289.3.382.647.382 1.208v1.75h-2.247v.869c0 .313.042.514.121.632.078.129.234.186.44.184.228-.002.373-.048.45-.151.079-.093.112-.353.112-.691v-.281h1.124v.332c0 .614-.05 1.069-.35 1.368-.286.313-.732.458-1.315.458-.534 0-.95-.157-1.25-.482-.298-.325-.454-.77-.454-1.344v-2.644c0-.508.178-.885.505-1.221.262-.27.756-.4 1.29-.4zm-4.043.842c-.31 0-.556.28-.561.562v3.37c.005.162.251.281.561.281a.55.55 0 0 0 .562-.548v-2.822c0-.563-.252-.843-.562-.843zm3.932.281a.57.57 0 0 0-.561.562v.561h1.123v-.561a.54.54 0 0 0-.562-.562z"/>
</svg>
