<?xml version="1.0" encoding="UTF-8" standalone="no"?>
<svg width="24px" height="21px" viewBox="0 0 24 21" version="1.1" xmlns="http://www.w3.org/2000/svg" xmlns:xlink="http://www.w3.org/1999/xlink">
    <!-- Generator: Sketch 41.1 (35376) - http://www.bohemiancoding.com/sketch -->
    <title>icone_youtube copy</title>
    <desc>Created with Sketch.</desc>
    <defs></defs>
    <g id="Page-1" stroke="none" stroke-width="1" fill="none" fill-rule="evenodd">
        <path d="M4.93854342,-3.55271368e-15 L6.58472457,4.82474221 L6.58472457,8.04123701 L7.68217866,8.04123701 L7.68217866,4.82474221 L9.3283598,-3.55271368e-15 L8.23090571,-3.55271368e-15 L7.13345161,3.2164948 L6.03599752,-3.55271368e-15 L4.93854342,-3.55271368e-15 Z M10.9745409,2.14432987 C10.3885005,2.14432987 10.1014131,2.23448388 9.74419174,2.52021583 C9.40123734,2.80433959 9.30586199,3.02243295 9.3283598,3.75257727 L9.3283598,6.43298961 C9.3283598,6.96692775 9.41759654,7.31877368 9.74847895,7.63184584 C10.0914334,7.94223759 10.4153881,8.04123701 10.9745409,8.04123701 C11.5589352,8.04123701 11.8788689,7.94226279 12.2081051,7.63079887 C12.552157,7.33166486 12.6207221,6.96799991 12.6207221,6.43298961 L12.6207221,3.75257727 C12.6207221,3.27975254 12.5347003,2.83033102 12.2038179,2.53173319 C11.8597661,2.22294969 11.5068062,2.14432987 10.9745409,2.14432987 Z M13.7181762,2.14432987 L13.7181762,6.96907208 C13.7181762,7.49014423 14.2559287,8.04123701 14.8156303,8.04123701 C15.3753319,8.04123701 15.6710957,7.76622671 15.9130844,7.50515454 L15.9130844,8.04123701 L17.0105385,8.04123701 L17.0105385,2.14432987 L15.9130844,2.14432987 L15.9130844,6.43298961 C15.9070484,6.79913393 15.4653231,6.96907208 15.3643573,6.96907208 C15.2502221,6.96907208 14.8156303,6.94655661 14.8156303,6.43298961 L14.8156303,2.14432987 L13.7181762,2.14432987 Z M10.9745409,3.2164948 C11.1391591,3.2164948 11.523268,3.21542264 11.523268,3.75257727 L11.523268,6.43298961 C11.523268,6.95245352 11.1523285,6.96907208 10.9745409,6.96907208 C10.8099228,6.96907208 10.4258139,6.962103 10.4258139,6.43298961 L10.4258139,3.75257727 C10.4258139,3.31567006 10.6634127,3.2164948 10.9745409,3.2164948 Z M3.29236228,9.11340195 C1.32133473,9.11340195 0,10.3903504 0,12.3298968 L0,17.4226802 C0,19.3622266 1.32133473,20.9072162 3.29236228,20.9072162 L19.7541737,20.9072162 C21.7252013,20.9072162 23.046536,19.6302678 23.046536,17.6907214 L23.046536,12.3298968 C23.046536,10.3903504 21.7252013,9.11340195 19.7541737,9.11340195 L3.29236228,9.11340195 Z M4.38981638,11.2577318 L7.68217866,11.2577318 L7.68217866,12.3298968 L6.58472457,12.3298968 L6.58472457,18.7628864 L5.48727047,18.7628864 L5.48727047,12.3298968 L4.38981638,12.3298968 L4.38981638,11.2577318 Z M12.071995,11.2577318 L13.1694491,11.2577318 L13.1694491,13.4020617 C13.2956564,13.209072 13.4851817,13.0575279 13.663518,12.9706826 C13.8413056,12.8822295 14.0189044,12.833521 14.1972407,12.833521 C14.5533645,12.833521 14.8336867,12.9572891 15.0235462,13.1937014 C15.215052,13.4301138 15.3643573,13.7435462 15.3643573,14.2061854 L15.3643573,17.4226802 C15.3643573,17.8199173 15.2265325,18.0668417 15.0481962,18.2802025 C14.8720548,18.4903469 14.6082115,18.7596699 14.2669032,18.7628864 C13.6901911,18.7687833 13.3812578,18.4685771 13.1694491,18.2268039 L13.1694491,18.7628864 L12.071995,18.7628864 L12.071995,11.2577318 Z M7.68217866,12.8659792 L8.77963275,12.8659792 L8.77963275,17.154639 C8.77963275,17.2779379 8.9266916,17.694474 9.3283598,17.6907214 C9.77447489,17.6864328 9.77776725,17.2795462 9.87708685,17.154639 L9.87708685,12.8659792 L10.9745409,12.8659792 L10.9745409,18.7628864 L9.87708685,18.7628864 L9.87708685,18.2268039 C9.67405784,18.461608 9.56841911,18.5341132 9.34014865,18.6456183 C9.11132948,18.7705255 8.88115604,18.7628864 8.66495758,18.7628864 C8.39937369,18.7628864 8.09756504,18.5282833 7.95654218,18.3524482 C7.82923751,18.1916235 7.68217866,18.025773 7.68217866,17.6907214 L7.68217866,12.8659792 Z M17.6675107,12.8659792 C18.1893501,12.8659792 18.5553763,12.9739328 18.8324835,13.2596648 C19.1145297,13.5453967 19.2054467,13.8774414 19.2054467,14.4124517 L19.2054467,16.082474 L17.0105385,16.082474 L17.0105385,16.9117266 C17.0105385,17.2103245 17.0521303,17.4027781 17.1295008,17.5148194 C17.2052252,17.6381183 17.3578827,17.6928658 17.5592655,17.6907214 C17.7820487,17.6885771 17.9229514,17.6448698 17.9986757,17.5462306 C18.0754975,17.457777 18.1079926,17.2098555 18.1079926,16.8865977 L18.1079926,16.6185565 L19.2054467,16.6185565 L19.2054467,16.9358085 C19.2054467,17.5217466 19.1576816,17.9557306 18.8635639,18.2414625 C18.5848106,18.5400605 18.1492069,18.6780765 17.5796282,18.6780765 C17.0577888,18.6780765 16.6514224,18.5288194 16.3578534,18.2184276 C16.0670281,17.9080359 15.9152277,17.4842208 15.9152277,16.9358085 L15.9152277,14.4124517 C15.9152277,13.9278331 16.0883171,13.568214 16.4082249,13.2471006 C16.6644805,12.9903171 17.1467687,12.8659792 17.6675107,12.8659792 Z M13.7181762,13.6701029 C13.4152788,13.6701029 13.1743877,13.9365359 13.1694491,14.2061854 L13.1694491,17.4226802 C13.1743877,17.5770719 13.4152788,17.6907214 13.7181762,17.6907214 C14.0210735,17.6907214 14.2669032,17.4631206 14.2669032,17.1672037 L14.2669032,14.4742266 C14.2669032,13.9376081 14.0210735,13.6701029 13.7181762,13.6701029 Z M17.5592655,13.9381442 C17.2563682,13.9381442 17.015477,14.1863503 17.0105385,14.4742266 L17.0105385,15.0103091 L18.1079926,15.0103091 L18.1079926,14.4742266 C18.1079926,14.1445359 17.8621628,13.9381442 17.5592655,13.9381442 Z" id="icone_youtube-copy" fill="#5016A5"></path>
    </g>
</svg>