<?xml version="1.0" encoding="UTF-8" standalone="no"?>
<svg width="24px" height="22px" viewBox="0 0 24 22" version="1.1" xmlns="http://www.w3.org/2000/svg" xmlns:xlink="http://www.w3.org/1999/xlink">
    <!-- Generator: Sketch 41.1 (35376) - http://www.bohemiancoding.com/sketch -->
    <title>icone_black_youtube</title>
    <desc>Created with Sketch.</desc>
    <defs></defs>
    <g id="Page-1" stroke="none" stroke-width="1" fill="none" fill-rule="evenodd">
        <g id="Desktop-Rus_och-Search" transform="translate(-935.000000, -7397.000000)" fill="#FFFFFF">
            <path d="M940.259224,7397 L941.944418,7402.05558 L941.944418,7405.42597 L943.067881,7405.42597 L943.067881,7402.05558 L944.753075,7397 L943.629612,7397 L942.506149,7400.37039 L941.382687,7397 L940.259224,7397 Z M946.438269,7399.24693 C945.83834,7399.24693 945.544449,7399.34139 945.178761,7399.6408 C944.827679,7399.93851 944.730044,7400.16704 944.753075,7400.93212 L944.753075,7403.74078 C944.753075,7404.30026 944.844426,7404.66894 945.18315,7404.99699 C945.534232,7405.32223 945.865864,7405.42597 946.438269,7405.42597 C947.036513,7405.42597 947.364028,7405.32226 947.701067,7404.99589 C948.053273,7404.68245 948.123463,7404.30138 948.123463,7403.74078 L948.123463,7400.93212 C948.123463,7400.43667 948.035402,7399.96575 947.696678,7399.65286 C947.344473,7399.32931 946.983148,7399.24693 946.438269,7399.24693 Z M949.246925,7399.24693 L949.246925,7404.30251 C949.246925,7404.84851 949.797422,7405.42597 950.370388,7405.42597 C950.943354,7405.42597 951.246127,7405.1378 951.493851,7404.86424 L951.493851,7405.42597 L952.617313,7405.42597 L952.617313,7399.24693 L951.493851,7399.24693 L951.493851,7403.74078 C951.487671,7404.12444 951.035478,7404.30251 950.932119,7404.30251 C950.815279,7404.30251 950.370388,7404.27891 950.370388,7403.74078 L950.370388,7399.24693 L949.246925,7399.24693 Z M946.438269,7400.37039 C946.606788,7400.37039 947,7400.36926 947,7400.93212 L947,7403.74078 C947,7404.28509 946.62027,7404.30251 946.438269,7404.30251 C946.269749,7404.30251 945.876537,7404.2952 945.876537,7403.74078 L945.876537,7400.93212 C945.876537,7400.47431 946.119767,7400.37039 946.438269,7400.37039 Z M938.57403,7406.54943 C936.556291,7406.54943 935.203642,7407.88748 935.203642,7409.91982 L935.203642,7415.25627 C935.203642,7417.28861 936.556291,7418.90752 938.57403,7418.90752 L955.42597,7418.90752 C957.443709,7418.90752 958.796358,7417.56948 958.796358,7415.53713 L958.796358,7409.91982 C958.796358,7407.88748 957.443709,7406.54943 955.42597,7406.54943 L938.57403,7406.54943 Z M939.697493,7408.79636 L943.067881,7408.79636 L943.067881,7409.91982 L941.944418,7409.91982 L941.944418,7416.6606 L940.820956,7416.6606 L940.820956,7409.91982 L939.697493,7409.91982 L939.697493,7408.79636 Z M947.561731,7408.79636 L948.685194,7408.79636 L948.685194,7411.04328 C948.814392,7410.84106 949.008409,7410.68226 949.190972,7410.59126 C949.372973,7410.49858 949.55478,7410.44754 949.737343,7410.44754 C950.101907,7410.44754 950.388872,7410.57723 950.583231,7410.82495 C950.779275,7411.07268 950.932119,7411.40111 950.932119,7411.88588 L950.932119,7415.25627 C950.932119,7415.67251 950.791028,7415.93125 950.608465,7416.15482 C950.42815,7416.37502 950.158053,7416.65723 949.808657,7416.6606 C949.218277,7416.66678 948.902022,7416.35221 948.685194,7416.09886 L948.685194,7416.6606 L947.561731,7416.6606 L947.561731,7408.79636 Z M943.067881,7410.48155 L944.191343,7410.48155 L944.191343,7414.9754 C944.191343,7415.1046 944.341887,7415.54107 944.753075,7415.53713 C945.209762,7415.53264 945.213133,7415.10629 945.314806,7414.9754 L945.314806,7410.48155 L946.438269,7410.48155 L946.438269,7416.6606 L945.314806,7416.6606 L945.314806,7416.09886 C945.106965,7416.3449 944.998823,7416.42088 944.765143,7416.53772 C944.530901,7416.6686 944.295273,7416.6606 944.073951,7416.6606 C943.802073,7416.6606 943.493111,7416.41477 943.348746,7416.23052 C943.218425,7416.062 943.067881,7415.88822 943.067881,7415.53713 L943.067881,7410.48155 Z M953.289855,7410.48155 C953.824061,7410.48155 954.198762,7410.59467 954.482436,7410.89407 C954.771167,7411.19348 954.864238,7411.54141 954.864238,7412.10201 L954.864238,7413.85194 L952.617313,7413.85194 L952.617313,7414.72087 C952.617313,7415.03375 952.659891,7415.23541 952.739095,7415.35282 C952.816614,7415.48201 952.972889,7415.53938 953.179044,7415.53713 C953.407107,7415.53489 953.551349,7415.48909 953.628868,7415.38573 C953.707511,7415.29304 953.740776,7415.03326 953.740776,7414.69454 L953.740776,7414.41367 L954.864238,7414.41367 L954.864238,7414.7461 C954.864238,7415.36007 954.815341,7415.81482 954.514253,7416.11422 C954.228894,7416.42711 953.782967,7416.57173 953.19989,7416.57173 C952.665683,7416.57173 952.249686,7416.41533 951.94916,7416.09009 C951.651443,7415.76485 951.496045,7415.32075 951.496045,7414.7461 L951.496045,7412.10201 C951.496045,7411.59421 951.673236,7411.21738 952.000725,7410.88091 C952.263054,7410.61184 952.756772,7410.48155 953.289855,7410.48155 Z M949.246925,7411.32415 C948.93685,7411.32415 948.69025,7411.60333 948.685194,7411.88588 L948.685194,7415.25627 C948.69025,7415.41805 948.93685,7415.53713 949.246925,7415.53713 C949.557001,7415.53713 949.808657,7415.29864 949.808657,7414.98857 L949.808657,7412.16675 C949.808657,7411.60445 949.557001,7411.32415 949.246925,7411.32415 Z M953.179044,7411.60501 C952.868969,7411.60501 952.622369,7411.8651 952.617313,7412.16675 L952.617313,7412.72848 L953.740776,7412.72848 L953.740776,7412.16675 C953.740776,7411.82128 953.48912,7411.60501 953.179044,7411.60501 Z" id="icone_black_youtube"></path>
        </g>
    </g>
</svg>