<?xml version="1.0" encoding="UTF-8" standalone="no"?>
<svg width="28px" height="17px" viewBox="0 0 28 17" version="1.1" xmlns="http://www.w3.org/2000/svg" xmlns:xlink="http://www.w3.org/1999/xlink">
    <!-- Generator: Sketch 41.1 (35376) - http://www.bohemiancoding.com/sketch -->
    <title>icone_vk</title>
    <desc>Created with Sketch.</desc>
    <defs></defs>
    <g id="Page-1" stroke="none" stroke-width="1" fill="none" fill-rule="evenodd">
        <g id="Desktop-Rus_och-Search" transform="translate(-704.000000, -7400.000000)" fill="#5016A5">
            <path d="M730.82292,7413.39778 C731.190412,7413.84079 731.538335,7414.29795 731.804491,7414.81207 C732.18163,7415.54292 731.840046,7416.34718 731.184716,7416.39082 L727.111064,7416.38898 C726.060404,7416.47617 725.222246,7416.05319 724.517488,7415.33483 C723.953479,7414.76035 723.431181,7414.14893 722.888854,7413.55507 C722.666521,7413.31234 722.433807,7413.08394 722.155799,7412.90341 C721.599691,7412.54244 721.11699,7412.65296 720.799201,7413.23296 C720.475532,7413.82288 720.402126,7414.47609 720.370338,7415.13354 C720.326698,7416.09278 720.036747,7416.34498 719.073182,7416.38889 C717.013939,7416.486 715.059615,7416.17446 713.244112,7415.13565 C711.643499,7414.21986 710.402294,7412.92702 709.321959,7411.46339 C707.218525,7408.6134 705.607715,7405.48172 704.159979,7402.26231 C703.834105,7401.53697 704.072424,7401.14761 704.87273,7401.13383 C706.201674,7401.10801 707.530434,7401.10985 708.86094,7401.13199 C709.401061,7401.13989 709.758631,7401.44969 709.967183,7401.95995 C710.686182,7403.72786 711.565958,7405.40988 712.670273,7406.96896 C712.964358,7407.38404 713.264232,7407.79913 713.691258,7408.09128 C714.163669,7408.41477 714.523352,7408.30755 714.745593,7407.7813 C714.886618,7407.44762 714.948357,7407.08821 714.980145,7406.73083 C715.085432,7405.50129 715.099304,7404.27387 714.91464,7403.04865 C714.801268,7402.28399 714.370567,7401.78898 713.607562,7401.64428 C713.218203,7401.5705 713.276175,7401.42562 713.464699,7401.20338 C713.792134,7400.82008 714.100093,7400.58149 714.713989,7400.58149 L719.31784,7400.58149 C720.042626,7400.72453 720.203588,7401.05013 720.302811,7401.77942 L720.306761,7406.89335 C720.29886,7407.17568 720.447787,7408.01347 720.956304,7408.20034 C721.363302,7408.33337 721.631571,7408.00777 721.87577,7407.7497 C722.978063,7406.57979 723.764772,7405.19719 724.467601,7403.76553 C724.77951,7403.13602 725.047687,7402.48225 725.307596,7401.82903 C725.500162,7401.34431 725.802332,7401.10581 726.348334,7401.11637 L730.77928,7401.12032 C730.910658,7401.12032 731.043599,7401.12225 731.170843,7401.14403 C731.917495,7401.27127 732.122097,7401.59246 731.891495,7402.32156 C731.528137,7403.46547 730.821174,7404.41875 730.129921,7405.37643 C729.390986,7406.39889 728.600694,7407.38634 727.867914,7408.41486 C727.194669,7409.35408 727.248139,7409.8275 728.084459,7410.64324 C729.01201,7411.54883 729.991009,7412.40087 730.82292,7413.39778 Z" id="icone_vk"></path>
        </g>
    </g>
</svg>