<?xml version="1.0" encoding="UTF-8" standalone="no"?>
<svg width="12px" height="21px" viewBox="0 0 12 21" version="1.1" xmlns="http://www.w3.org/2000/svg" xmlns:xlink="http://www.w3.org/1999/xlink">
    <!-- Generator: Sketch 41.1 (35376) - http://www.bohemiancoding.com/sketch -->
    <title>icone_facebook</title>
    <desc>Created with Sketch.</desc>
    <defs></defs>
    <g id="Page-1" stroke="none" stroke-width="1" fill="none" fill-rule="evenodd">
        <g id="Desktop-Rus_och-Home" transform="translate(-40.000000, -25.000000)" fill="#FFFFFF">
            <g id="Group-5" transform="translate(40.000000, 21.000000)">
                <path d="M10.6656052,4.96814111 L8.00730785,4.96397417 C5.02080189,4.96397417 3.09079055,6.89847281 3.09079055,9.8926225 L3.09079055,12.1650594 L0.417991408,12.1650594 C0.187029829,12.1650594 -3.55271368e-15,12.3479878 -3.55271368e-15,12.5736272 L-3.55271368e-15,15.8661293 C-3.55271368e-15,16.0917687 0.18724309,16.2744887 0.417991408,16.2744887 L3.09079055,16.2744887 L3.09079055,24.5825197 C3.09079055,24.8081591 3.27782038,24.9908791 3.50878195,24.9908791 L6.99602456,24.9908791 C7.22698613,24.9908791 7.41401596,24.8079507 7.41401596,24.5825197 L7.41401596,16.2744887 L10.5391415,16.2744887 C10.7701031,16.2744887 10.9571329,16.0917687 10.9571329,15.8661293 L10.9584125,12.5736272 C10.9584125,12.4652869 10.9142675,12.3615303 10.8360007,12.2848587 C10.757734,12.2081872 10.6511035,12.1650594 10.5402078,12.1650594 L7.41401596,12.1650594 L7.41401596,10.2386863 C7.41401596,9.31279377 7.63985928,8.84276373 8.87442676,8.84276373 L10.6651787,8.84213869 C10.895927,8.84213869 11.0829569,8.65921034 11.0829569,8.43377926 L11.0829569,5.37650054 C11.0829569,5.15127781 10.8961403,4.9685578 10.6656052,4.96814111 Z" id="icone_facebook"></path>
            </g>
        </g>
    </g>
</svg>