<?xml version="1.0" encoding="UTF-8" standalone="no"?>
<svg width="12px" height="20px" viewBox="0 0 12 20" version="1.1" xmlns="http://www.w3.org/2000/svg" xmlns:xlink="http://www.w3.org/1999/xlink">
    <!-- Generator: Sketch 41.1 (35376) - http://www.bohemiancoding.com/sketch -->
    <title>icone_black_fb</title>
    <desc>Created with Sketch.</desc>
    <defs></defs>
    <g id="Page-1" stroke="none" stroke-width="1" fill="none" fill-rule="evenodd">
        <g id="Desktop-Rus_och-Search" transform="translate(-492.000000, -7399.000000)" fill="#5016A5">
            <path d="M502.668457,7399.38799 L500.246552,7399.38411 C497.525625,7399.38411 495.767243,7401.18815 495.767243,7403.98038 L495.767243,7406.09957 L493.332126,7406.09957 C493.121703,7406.09957 492.951305,7406.27016 492.951305,7406.48059 L492.951305,7409.55105 C492.951305,7409.76148 493.121897,7409.93187 493.332126,7409.93187 L495.767243,7409.93187 L495.767243,7417.67964 C495.767243,7417.89006 495.937641,7418.06046 496.148064,7418.06046 L499.325199,7418.06046 C499.535622,7418.06046 499.70602,7417.88987 499.70602,7417.67964 L499.70602,7409.93187 L502.553239,7409.93187 C502.763662,7409.93187 502.93406,7409.76148 502.93406,7409.55105 L502.935226,7406.48059 C502.935226,7406.37955 502.895007,7406.28279 502.8237,7406.21129 C502.752393,7406.13979 502.655245,7406.09957 502.554211,7406.09957 L499.70602,7406.09957 L499.70602,7404.30311 C499.70602,7403.43965 499.911779,7403.00132 501.036561,7403.00132 L502.668068,7403.00074 C502.878297,7403.00074 503.048695,7402.83015 503.048695,7402.61992 L503.048695,7399.76881 C503.048695,7399.55878 502.878491,7399.38838 502.668457,7399.38799 Z" id="icone_black_fb"></path>
        </g>
    </g>
</svg>