<?xml version="1.0" encoding="UTF-8" standalone="no"?>
<svg width="25px" height="22px" viewBox="0 0 25 22" version="1.1" xmlns="http://www.w3.org/2000/svg" xmlns:xlink="http://www.w3.org/1999/xlink">
    <!-- Generator: Sketch 41.1 (35376) - http://www.bohemiancoding.com/sketch -->
    <title>Shape</title>
    <desc>Created with Sketch.</desc>
    <defs></defs>
    <g id="Page-1" stroke="none" stroke-width="1" fill="none" fill-rule="evenodd">
        <g id="Desktop-Rus_och-Home" transform="translate(-275.000000, -25.000000)" fill="#FFFFFF">
            <g id="Group-5" transform="translate(40.000000, 21.000000)">
                <path d="M240.908545,4.52381852 L242.554726,9.34856073 L242.554726,12.5650555 L243.65218,12.5650555 L243.65218,9.34856073 L245.298361,4.52381852 L244.200907,4.52381852 L243.103453,7.74031333 L242.005999,4.52381852 L240.908545,4.52381852 Z M246.944542,6.66814839 C246.358502,6.66814839 246.071414,6.7583024 245.714193,7.04403435 C245.371239,7.32815812 245.275863,7.54625147 245.298361,8.27639579 L245.298361,10.9568081 C245.298361,11.4907463 245.387598,11.8425922 245.71848,12.1556644 C246.061435,12.4660561 246.385389,12.5650555 246.944542,12.5650555 C247.528936,12.5650555 247.84887,12.4660813 248.178106,12.1546174 C248.522158,11.8554834 248.590723,11.4918184 248.590723,10.9568081 L248.590723,8.27639579 C248.590723,7.80357106 248.504702,7.35414954 248.173819,7.05555171 C247.829767,6.74676821 247.476807,6.66814839 246.944542,6.66814839 Z M249.688177,6.66814839 L249.688177,11.4928906 C249.688177,12.0139628 250.22593,12.5650555 250.785631,12.5650555 C251.345333,12.5650555 251.641097,12.2900452 251.883086,12.0289731 L251.883086,12.5650555 L252.98054,12.5650555 L252.98054,6.66814839 L251.883086,6.66814839 L251.883086,10.9568081 C251.87705,11.3229525 251.435324,11.4928906 251.334359,11.4928906 C251.220223,11.4928906 250.785631,11.4703751 250.785631,10.9568081 L250.785631,6.66814839 L249.688177,6.66814839 Z M246.944542,7.74031333 C247.10916,7.74031333 247.493269,7.73924116 247.493269,8.27639579 L247.493269,10.9568081 C247.493269,11.476272 247.12233,11.4928906 246.944542,11.4928906 C246.779924,11.4928906 246.395815,11.4859215 246.395815,10.9568081 L246.395815,8.27639579 C246.395815,7.83948858 246.633414,7.74031333 246.944542,7.74031333 Z M239.262364,13.6372205 C237.291336,13.6372205 235.970001,14.9141689 235.970001,16.8537153 L235.970001,21.9464987 C235.970001,23.8860451 237.291336,25.4310348 239.262364,25.4310348 L255.724175,25.4310348 C257.695202,25.4310348 259.016537,24.1540863 259.016537,22.2145399 L259.016537,16.8537153 C259.016537,14.9141689 257.695202,13.6372205 255.724175,13.6372205 L239.262364,13.6372205 Z M240.359818,15.7815503 L243.65218,15.7815503 L243.65218,16.8537153 L242.554726,16.8537153 L242.554726,23.2867049 L241.457272,23.2867049 L241.457272,16.8537153 L240.359818,16.8537153 L240.359818,15.7815503 Z M248.041996,15.7815503 L249.13945,15.7815503 L249.13945,17.9258802 C249.265658,17.7328905 249.455183,17.5813464 249.633519,17.4945011 C249.811307,17.406048 249.988906,17.3573396 250.167242,17.3573396 C250.523366,17.3573396 250.803688,17.4811076 250.993547,17.71752 C251.185053,17.9539323 251.334359,18.2673647 251.334359,18.7300039 L251.334359,21.9464987 C251.334359,22.3437358 251.196534,22.5906602 251.018197,22.8040211 C250.842056,23.0141654 250.578213,23.2834884 250.236904,23.2867049 C249.660192,23.2926018 249.351259,22.9923956 249.13945,22.7506224 L249.13945,23.2867049 L248.041996,23.2867049 L248.041996,15.7815503 Z M243.65218,17.3897977 L244.749634,17.3897977 L244.749634,21.6784575 C244.749634,21.8017564 244.896693,22.2182925 245.298361,22.2145399 C245.744476,22.2102513 245.747768,21.8033647 245.847088,21.6784575 L245.847088,17.3897977 L246.944542,17.3897977 L246.944542,23.2867049 L245.847088,23.2867049 L245.847088,22.7506224 C245.644059,22.9854265 245.53842,23.0579317 245.31015,23.1694368 C245.081331,23.2943441 244.851157,23.2867049 244.634959,23.2867049 C244.369375,23.2867049 244.067566,23.0521018 243.926543,22.8762667 C243.799239,22.715442 243.65218,22.5495915 243.65218,22.2145399 L243.65218,17.3897977 Z M253.637512,17.3897977 C254.159351,17.3897977 254.525378,17.4977513 254.802485,17.7834833 C255.084531,18.0692153 255.175448,18.4012599 255.175448,18.9362702 L255.175448,20.6062925 L252.98054,20.6062925 L252.98054,21.4355451 C252.98054,21.734143 253.022132,21.9265967 253.099502,22.0386379 C253.175226,22.1619369 253.327884,22.2166843 253.529267,22.2145399 C253.75205,22.2123956 253.892953,22.1686883 253.968677,22.0700491 C254.045499,21.9815955 254.077994,21.733674 254.077994,21.4104162 L254.077994,21.142375 L255.175448,21.142375 L255.175448,21.459627 C255.175448,22.0455651 255.127683,22.4795491 254.833565,22.7652811 C254.554812,23.063879 254.119208,23.201895 253.549629,23.201895 C253.02779,23.201895 252.621424,23.0526379 252.327855,22.7422461 C252.037029,22.4318544 251.885229,22.0080394 251.885229,21.459627 L251.885229,18.9362702 C251.885229,18.4516517 252.058318,18.0920325 252.378226,17.7709191 C252.634482,17.5141356 253.11677,17.3897977 253.637512,17.3897977 Z M249.688177,18.1939214 C249.38528,18.1939214 249.144389,18.4603544 249.13945,18.7300039 L249.13945,21.9464987 C249.144389,22.1008905 249.38528,22.2145399 249.688177,22.2145399 C249.991075,22.2145399 250.236904,21.9869392 250.236904,21.6910222 L250.236904,18.9980451 C250.236904,18.4614266 249.991075,18.1939214 249.688177,18.1939214 Z M253.529267,18.4619627 C253.226369,18.4619627 252.985478,18.7101689 252.98054,18.9980451 L252.98054,19.5341276 L254.077994,19.5341276 L254.077994,18.9980451 C254.077994,18.6683544 253.832164,18.4619627 253.529267,18.4619627 Z" id="Shape"></path>
            </g>
        </g>
    </g>
</svg>