<?xml version="1.0" encoding="UTF-8" standalone="no"?>
<svg width="23px" height="22px" viewBox="0 0 23 22" version="1.1" xmlns="http://www.w3.org/2000/svg" xmlns:xlink="http://www.w3.org/1999/xlink">
    <!-- Generator: Sketch 41.1 (35376) - http://www.bohemiancoding.com/sketch -->
    <title>iocne_black_telegram</title>
    <desc>Created with Sketch.</desc>
    <defs></defs>
    <g id="Page-1" stroke="none" stroke-width="1" fill="none" fill-rule="evenodd">
        <g id="Desktop-Rus_och-Search" transform="translate(-825.000000, -7398.000000)">
            <g id="iocne_black_telegram" transform="translate(825.000000, 7398.000000)">
                <g id="Group-9">
                    <ellipse id="Oval" fill="#FFFFFF" cx="11.5496689" cy="10.9205298" rx="10.7284768" ry="10.7284768"></ellipse>
                    <path d="M17.4425199,5.28204898 L5.37298092,9.93729476 C4.54921546,10.2678051 4.55410081,10.7272653 5.22283083,10.9321421 L8.23301031,11.8716804 L9.38477562,15.4029043 C9.52479647,15.7893959 9.45577222,15.942684 9.8616268,15.942684 C10.1748361,15.942684 10.3137815,15.7998845 10.4882248,15.6294748 C10.5991566,15.5209186 11.2578013,14.8805601 11.9932252,14.165531 L15.1243765,16.4789678 C15.7005505,16.796838 16.1165793,16.6321657 16.2600514,15.9438494 L18.3154093,6.25820613 C18.525844,5.41454018 17.9937734,5.03185819 17.4425199,5.28204898 Z M15.4903851,7.37514605 C15.8290972,7.1697315 16.1396619,7.28017051 15.884675,7.50651654 L10.0749745,12.7483348 L9.84876335,15.1610502 L8.70542391,11.6558226 L15.4903851,7.37514605 Z" id="path9" fill="#5016A5"></path>
                </g>
            </g>
        </g>
    </g>
</svg>