<svg xmlns="http://www.w3.org/2000/svg" width="20" height="17" viewBox="0 0 20 17">
    <path fill="#000" fill-rule="evenodd" d="M17.72 2.596A4.16 4.16 0 0 0 19.542.304c-.801.474-1.69.82-2.633 1.005a4.145 4.145 0 0 0-7.061 3.78A11.773 11.773 0 0 1 1.306.758a4.132 4.132 0 0 0-.56 2.085c0 1.437.73 2.706 1.842 3.45a4.127 4.127 0 0 1-1.877-.52v.053A4.148 4.148 0 0 0 4.035 9.89a4.103 4.103 0 0 1-1.872.071 4.153 4.153 0 0 0 3.872 2.878 8.313 8.313 0 0 1-5.148 1.773c-.335 0-.664-.018-.988-.057a11.726 11.726 0 0 0 6.353 1.862c7.624 0 11.793-6.316 11.793-11.792 0-.18-.004-.36-.012-.537A8.35 8.35 0 0 0 20.1 1.944a8.3 8.3 0 0 1-2.382.652z"/>
</svg>
