<?xml version="1.0" encoding="UTF-8" standalone="no"?>
<svg width="19px" height="19px" viewBox="0 0 19 19" version="1.1" xmlns="http://www.w3.org/2000/svg" xmlns:xlink="http://www.w3.org/1999/xlink">
    <!-- Generator: Sketch 41.1 (35376) - http://www.bohemiancoding.com/sketch -->
    <title>Group 31</title>
    <desc>Created with Sketch.</desc>
    <defs></defs>
    <g id="Page-1" stroke="none" stroke-width="1" fill="none" fill-rule="evenodd">
        <g id="Group-31">
            <g id="icone_telegram-copy">
                <ellipse id="Oval" fill="#5016A5" cx="9.45998547" cy="9.7213807" rx="9.30356437" ry="9.08917789"></ellipse>
                <path d="M14.3112903,4.91493004 L3.84477817,8.85885961 C3.13042187,9.13886832 3.13465837,9.52812356 3.7145704,9.70169545 L6.32495014,10.4976734 L7.32374269,13.4893303 C7.44516654,13.8167664 7.38530981,13.9466323 7.73726045,13.9466323 C8.00887056,13.9466323 8.1293618,13.8256523 8.2806363,13.681281 C8.37683456,13.5893121 8.94800072,13.0467997 9.58574866,12.4410262 L12.3010332,14.4009726 C12.8006822,14.6702726 13.1614557,14.530762 13.2858725,13.9476196 L15.0682461,5.74193151 C15.2507317,5.02717674 14.7893285,4.70296812 14.3112903,4.91493004 Z M12.6184301,6.68820429 C12.9121558,6.51417684 13.1814726,6.6077409 12.960352,6.79950151 L7.92227218,11.2403759 L7.72610546,13.2844312 L6.7346197,10.3147984 L12.6184301,6.68820429 Z" id="path9" fill="#FFFFFF"></path>
            </g>
        </g>
    </g>
</svg>