<?xml version="1.0" encoding="UTF-8" standalone="no"?>
<svg width="23px" height="22px" viewBox="0 0 23 22" version="1.1" xmlns="http://www.w3.org/2000/svg" xmlns:xlink="http://www.w3.org/1999/xlink">
    <!-- Generator: Sketch 41.1 (35376) - http://www.bohemiancoding.com/sketch -->
    <title>icone_black_telegram</title>
    <desc>Created with Sketch.</desc>
    <defs></defs>
    <g id="Page-1" stroke="none" stroke-width="1" fill="none" fill-rule="evenodd">
        <g id="Rus_-och-Tablet_1024_article_forms" transform="translate(-617.000000, -7849.000000)">
            <g id="icone_black_telegram" transform="translate(617.000000, 7849.000000)">
                <ellipse id="Oval" fill="#000000" cx="11.5" cy="10.7284768" rx="10.7284768" ry="10.7284768"></ellipse>
                <path d="M17.392851,5.07556409 L5.32331205,9.73080986 C4.49954659,10.0613202 4.50443193,10.5207804 5.17316196,10.7256572 L8.18334144,11.6651956 L9.33510674,15.1964194 C9.47512759,15.582911 9.40610335,15.7361992 9.81195793,15.7361992 C10.1251672,15.7361992 10.2641126,15.5933996 10.438556,15.4229899 C10.5494877,15.3144337 11.2081324,14.6740752 11.9435563,13.9590461 L15.0747076,16.2724829 C15.6508816,16.5903532 16.0669104,16.4256808 16.2103826,15.7373645 L18.2657404,6.05172124 C18.4761751,5.20805528 17.9441045,4.82537329 17.392851,5.07556409 Z M15.4407162,7.16866116 C15.7794284,6.96324661 16.089993,7.07368562 15.8350061,7.30003164 L10.0253056,12.5418499 L9.79909447,14.9545653 L8.65575504,11.4493377 L15.4407162,7.16866116 Z" id="path9" fill="#F9F9F9"></path>
            </g>
        </g>
    </g>
</svg>