<?xml version="1.0" encoding="UTF-8" standalone="no"?>
<svg width="23px" height="13px" viewBox="0 0 23 13" version="1.1" xmlns="http://www.w3.org/2000/svg" xmlns:xlink="http://www.w3.org/1999/xlink">
    <!-- Generator: Sketch 41.1 (35376) - http://www.bohemiancoding.com/sketch -->
    <title>icone_vk copy</title>
    <desc>Created with Sketch.</desc>
    <defs></defs>
    <g id="Page-1" stroke="none" stroke-width="1" fill="none" fill-rule="evenodd">
        <path d="M21.5874263,10.0848157 C21.8833957,10.4334106 22.1636048,10.7931385 22.3779606,11.1976878 C22.6816992,11.7727753 22.4065956,12.4056246 21.8788082,12.4399636 L18.5979872,12.4385177 C17.7518106,12.5071234 17.0767784,12.1742883 16.509183,11.6090326 C16.054944,11.1569871 15.6342974,10.6758799 15.1975206,10.2085806 C15.0184591,10.0175836 14.8310364,9.83786424 14.6071356,9.69580931 C14.1592599,9.41177174 13.770504,9.49873972 13.5145645,9.95512281 C13.2538894,10.4193135 13.1947695,10.9333138 13.1691682,11.4506395 C13.1340218,12.2054464 12.9005019,12.4038896 12.1244701,12.4384454 C10.4660055,12.5148587 8.89204012,12.2697145 7.42987721,11.4523023 C6.14078242,10.7316898 5.14114571,9.7143885 4.27106962,8.56269532 C2.57701466,6.32010702 1.27970672,3.85586965 0.113735198,1.32259286 C-0.148715683,0.751842892 0.0432204842,0.445466913 0.687767882,0.434623026 C1.75806729,0.414308809 2.82821871,0.415754661 3.89977598,0.433177174 C4.33477703,0.439394336 4.62275527,0.683164935 4.79071792,1.08467796 C5.36978208,2.47580418 6.07833287,3.79933684 6.96772097,5.02614202 C7.20457049,5.35275993 7.44608154,5.67937783 7.789998,5.90926825 C8.17046669,6.16381045 8.46014675,6.079445 8.63913426,5.66535307 C8.75271252,5.4027864 8.80243538,5.1199778 8.82803674,4.83875964 C8.91283198,3.87126797 8.92400482,2.90543902 8.77528019,1.9413451 C8.68397362,1.33965391 8.33709747,0.950141455 7.72259097,0.836280632 C7.40901137,0.778229686 7.45570054,0.664224278 7.60753285,0.489348513 C7.8712416,0.187743845 8.11926398,0 8.61368089,0 L12.3215118,0 C12.9052374,0.112559556 13.034872,0.36876448 13.1147838,0.942623026 L13.1179655,4.96664523 C13.1116021,5.18880034 13.2315437,5.84803643 13.6410914,5.99507955 C13.9688775,6.09975922 14.1849352,5.84355429 14.3816069,5.64048442 C15.2693671,4.71991063 15.9029637,3.63197951 16.4690052,2.50544414 C16.7202092,2.01009535 16.9361929,1.49566131 17.1455173,0.981661022 C17.3006053,0.600245339 17.5439661,0.412573787 17.9837027,0.420887434 L21.5522799,0.423996015 C21.658089,0.423996015 21.7651559,0.42551416 21.8676353,0.442647503 C22.4689712,0.542772734 22.6337522,0.795507614 22.4480314,1.36922157 C22.1553916,2.26933656 21.5860204,3.01944443 21.029302,3.77302234 C20.4341815,4.57756653 19.7976992,5.35456724 19.2075362,6.16388274 C18.6653202,6.90292984 18.7083838,7.27545354 19.3819362,7.91733941 C20.128963,8.62992742 20.9174255,9.30036886 21.5874263,10.0848157 Z" id="icone_vk-copy" fill="#5016A5"></path>
    </g>
</svg>