<?xml version="1.0" encoding="UTF-8" standalone="no"?>
<svg width="20px" height="18px" viewBox="0 0 20 18" version="1.1" xmlns="http://www.w3.org/2000/svg" xmlns:xlink="http://www.w3.org/1999/xlink">
    <!-- Generator: Sketch 41.1 (35376) - http://www.bohemiancoding.com/sketch -->
    <title>icone_black_twitter</title>
    <desc>Created with Sketch.</desc>
    <defs></defs>
    <g id="Page-1" stroke="none" stroke-width="1" fill="none" fill-rule="evenodd">
        <g id="Desktop-Rus_och-Search" transform="translate(-596.000000, -7400.000000)" fill="#5016A5">
            <path d="M613.719387,7403.26338 C614.575912,7402.75026 615.233503,7401.93715 615.542957,7400.9709 C614.741692,7401.44534 613.853589,7401.79032 612.910227,7401.97583 C612.154748,7401.16983 611.077973,7400.66697 609.885942,7400.66697 C607.596611,7400.66697 605.740674,7402.5229 605.740674,7404.81145 C605.740674,7405.1359 605.777777,7405.45246 605.848825,7405.7556 C602.404566,7405.58192 599.350283,7403.93203 597.305674,7401.42481 C596.948854,7402.0382 596.745182,7402.75026 596.745182,7403.50968 C596.745182,7404.94723 597.4754,7406.21583 598.588489,7406.95947 C597.908794,7406.93816 597.27015,7406.75106 596.711237,7406.44082 L596.711237,7406.49292 C596.711237,7408.502 598.140095,7410.1748 600.034714,7410.55688 C599.688157,7410.6524 599.321864,7410.70292 598.94373,7410.70292 C598.676115,7410.70292 598.416394,7410.67687 598.162989,7410.62792 C598.691903,7412.27309 600.221808,7413.47301 602.035116,7413.50617 C600.617309,7414.61768 598.830052,7415.27921 596.887279,7415.27921 C596.551774,7415.27921 596.222584,7415.26106 595.898919,7415.22159 C597.731963,7416.39783 599.911564,7417.08384 602.252207,7417.08384 C609.875679,7417.08384 614.045419,7410.76765 614.045419,7405.29221 C614.045419,7405.11143 614.040683,7404.93223 614.032788,7404.7554 C614.844317,7404.1728 615.546115,7403.44179 616.101081,7402.61053 C615.357443,7402.94051 614.559335,7403.16234 613.719387,7403.26338 Z" id="icone_black_twitter"></path>
        </g>
    </g>
</svg>