<svg xmlns="http://www.w3.org/2000/svg" width="19" height="19" viewBox="0 0 19 19">
    <g fill="none" fill-rule="evenodd" transform="translate(-.136 -.523)">
        <ellipse cx="9.46" cy="9.721" fill="#fff" rx="9.304" ry="9.089"/>
        <path fill="#5016a6" d="M14.311 4.915L3.845 8.859c-.715.28-.71.67-.13.843l2.61.796.999 2.991c.121.328.061.458.413.458.272 0 .392-.121.544-.266l1.305-1.24 2.715 1.96c.5.27.86.13.985-.453l1.782-8.206c.183-.715-.279-1.039-.757-.827zm-1.693 1.773c.294-.174.563-.08.342.112l-5.038 4.44-.196 2.044-.991-2.97 5.883-3.626z"/>
    </g>
</svg>
