<?xml version="1.0" encoding="UTF-8" standalone="no"?>
<svg width="12px" height="21px" viewBox="0 0 12 21" version="1.1" xmlns="http://www.w3.org/2000/svg" xmlns:xlink="http://www.w3.org/1999/xlink">
    <!-- Generator: Sketch 41.1 (35376) - http://www.bohemiancoding.com/sketch -->
    <title>Shape Copy</title>
    <desc>Created with Sketch.</desc>
    <defs></defs>
    <g id="Page-1" stroke="none" stroke-width="1" fill="none" fill-rule="evenodd">
        <path d="M10.6656052,0.00416693298 L8.00730785,1.42108547e-14 C5.02080189,1.42108547e-14 3.09079055,1.93449863 3.09079055,4.92864833 L3.09079055,7.20108522 L0.417991408,7.20108522 C0.187029829,7.20108522 0,7.38401358 0,7.609653 L0,10.9021551 C0,11.1277945 0.18724309,11.3105145 0.417991408,11.3105145 L3.09079055,11.3105145 L3.09079055,19.6185455 C3.09079055,19.8441849 3.27782038,20.0269049 3.50878195,20.0269049 L6.99602456,20.0269049 C7.22698613,20.0269049 7.41401596,19.8439766 7.41401596,19.6185455 L7.41401596,11.3105145 L10.5391415,11.3105145 C10.7701031,11.3105145 10.9571329,11.1277945 10.9571329,10.9021551 L10.9584125,7.609653 C10.9584125,7.50131275 10.9142675,7.39755611 10.8360007,7.32088455 C10.757734,7.24421298 10.6511035,7.20108522 10.5402078,7.20108522 L7.41401596,7.20108522 L7.41401596,5.27471211 C7.41401596,4.3488196 7.63985928,3.87878956 8.87442676,3.87878956 L10.6651787,3.87816452 C10.895927,3.87816452 11.0829569,3.69523616 11.0829569,3.46980509 L11.0829569,0.412526365 C11.0829569,0.187303637 10.8961403,0.00458362628 10.6656052,0.00416693298 Z" id="Shape-Copy" fill="#5016A5"></path>
    </g>
</svg>