<svg xmlns="http://www.w3.org/2000/svg" width="28" height="16" viewBox="0 0 28 16">
    <path fill="#000" fill-rule="evenodd" d="M26.823 12.816c.367.443.715.9.981 1.415.378.73.036 1.535-.62 1.578l-4.073-.002c-1.05.088-1.889-.335-2.594-1.054-.564-.574-1.086-1.186-1.628-1.78a3.857 3.857 0 0 0-.733-.651c-.556-.361-1.039-.25-1.357.33-.323.59-.397 1.243-.429 1.9-.043.96-.333 1.211-1.297 1.255-2.06.098-4.013-.214-5.829-1.253-1.6-.916-2.842-2.208-3.922-3.672C3.219 8.032 1.608 4.9.16 1.68-.166.955.072.566.873.552 2.202.527 3.53.528 4.86.551c.54.007.898.317 1.106.827.72 1.768 1.599 3.45 2.703 5.01.294.415.594.83 1.021 1.122.473.323.832.216 1.055-.31.14-.334.202-.693.234-1.05.105-1.23.12-2.458-.065-3.683-.114-.764-.544-1.26-1.307-1.404-.39-.074-.332-.219-.143-.441C9.792.239 10.1 0 10.714 0h4.604c.725.143.886.469.985 1.198l.004 5.114c-.008.282.14 1.12.65 1.307.406.133.675-.193.919-.45 1.102-1.17 1.889-2.553 2.592-3.985.312-.63.58-1.283.84-1.936.192-.485.494-.724 1.04-.713l4.431.004c.132 0 .265.002.392.024.746.127.951.448.72 1.177-.363 1.144-1.07 2.097-1.761 3.055-.739 1.022-1.53 2.01-2.262 3.038-.673.94-.62 1.413.216 2.229.928.905 1.907 1.757 2.739 2.754z"/>
</svg>
