<?xml version="1.0" encoding="UTF-8" standalone="no"?>
<svg width="18px" height="15px" viewBox="0 0 18 15" version="1.1" xmlns="http://www.w3.org/2000/svg" xmlns:xlink="http://www.w3.org/1999/xlink">
    <!-- Generator: Sketch 41.1 (35376) - http://www.bohemiancoding.com/sketch -->
    <title>icone_twitter copy</title>
    <desc>Created with Sketch.</desc>
    <defs></defs>
    <g id="Page-1" stroke="none" stroke-width="1" fill="none" fill-rule="evenodd">
        <path d="M15.7823698,2.24648128 C16.5409359,1.80251265 17.1233189,1.09899312 17.3973815,0.262966037 C16.6877552,0.673466265 15.9012235,0.971949793 15.0657521,1.13246153 C14.3966758,0.435089261 13.4430498,0 12.3873495,0 C10.3598457,0 8.71616924,1.6058004 8.71616924,3.5859005 C8.71616924,3.86662528 8.74902879,4.14051978 8.81195132,4.40280279 C5.7616067,4.25253648 3.05663688,2.82500657 1.24586617,0.65570752 C0.929855225,1.18642079 0.749477294,1.80251265 0.749477294,2.45958623 C0.749477294,3.70338143 1.39618112,4.8010085 2.38196748,5.4444215 C1.78000857,5.42597973 1.21440491,5.26410193 0.719414306,4.99567167 L0.719414306,5.04075156 C0.719414306,6.77905952 1.98485638,8.22639726 3.66279062,8.55698314 C3.35586848,8.63962961 3.03146786,8.68334344 2.69658015,8.68334344 C2.45957194,8.68334344 2.22955512,8.66080349 2.00513142,8.61845572 C2.47355473,10.0418875 3.82848663,11.080091 5.43440952,11.1087782 C4.1787554,12.0704826 2.5959041,12.6428606 0.875322363,12.6428606 C0.578188174,12.6428606 0.2866471,12.627151 0,12.5929995 C1.62340138,13.6107122 3.5537249,14.2042642 5.62667282,14.2042642 C12.3782607,14.2042642 16.0711143,8.73935179 16.0711143,4.00186496 C16.0711143,3.84545139 16.0669195,3.69040389 16.0599281,3.53740547 C16.7786433,3.03333031 17.4001781,2.40084576 17.891673,1.68161658 C17.2330838,1.96712256 16.526254,2.15905362 15.7823698,2.24648128 Z" id="icone_twitter-copy" fill="#5016A5"></path>
    </g>
</svg>