<svg xmlns="http://www.w3.org/2000/svg" width="19" height="16" viewBox="0 0 19 16">
    <path fill="#FFF" fill-rule="evenodd" d="M16.627 3.122a3.616 3.616 0 0 0 1.615-1.984c-.71.41-1.496.71-2.332.87A3.702 3.702 0 0 0 13.232.875c-2.028 0-3.671 1.606-3.671 3.586 0 .28.032.555.095.817A10.51 10.51 0 0 1 2.09 1.531a3.513 3.513 0 0 0-.496 1.804c0 1.244.647 2.341 1.632 2.985a3.721 3.721 0 0 1-1.662-.449v.045c0 1.738 1.265 3.186 2.943 3.516a3.714 3.714 0 0 1-1.658.062c.469 1.423 1.824 2.461 3.43 2.49a7.474 7.474 0 0 1-4.56 1.534c-.296 0-.588-.016-.875-.05a10.563 10.563 0 0 0 5.627 1.612c6.752 0 10.444-5.465 10.444-10.203 0-.156-.004-.311-.01-.464a7.303 7.303 0 0 0 1.831-1.856 7.487 7.487 0 0 1-2.11.565z"/>
</svg>
