<svg xmlns="http://www.w3.org/2000/svg" width="23" height="14" viewBox="0 0 23 14">
    <path fill="#FFF" fill-rule="evenodd" d="M21.794 10.836c.296.349.576.709.79 1.113.304.575.029 1.208-.499 1.243l-3.28-.002c-.847.069-1.522-.264-2.09-.83-.454-.451-.874-.933-1.311-1.4a3.084 3.084 0 0 0-.59-.513c-.449-.284-.837-.197-1.093.26-.26.464-.32.978-.346 1.495-.035.755-.268.953-1.044.988-1.659.076-3.233-.169-4.695-.986-1.289-.72-2.289-1.738-3.159-2.89C2.783 7.072 1.486 4.607.32 2.074c-.262-.57-.07-.877.574-.888 1.07-.02 2.14-.019 3.212-.001.435.006.723.25.89.651.58 1.391 1.289 2.715 2.178 3.942.237.326.478.653.822.883.38.254.67.17.85-.244.113-.263.163-.545.188-.827.085-.967.096-1.933-.052-2.897-.092-.602-.439-.991-1.053-1.105-.314-.058-.267-.172-.115-.347.263-.302.511-.49 1.006-.49h3.708c.583.113.713.37.793.943l.003 4.024c-.006.222.114.882.523 1.029.328.104.544-.152.74-.355.889-.92 1.522-2.008 2.088-3.135.251-.495.467-1.01.677-1.524.155-.381.398-.569.838-.56l3.569.003c.105 0 .212.001.315.018.601.1.766.353.58.927-.292.9-.862 1.65-1.418 2.404-.596.804-1.232 1.581-1.822 2.39-.542.74-.5 1.112.174 1.754.747.713 1.536 1.383 2.206 2.167z"/>
</svg>
