<svg xmlns="http://www.w3.org/2000/svg" width="25" height="22" viewBox="0 0 25 22">
    <path fill="#FFF" fill-rule="evenodd" d="M5.909.524l1.646 4.825v3.216h1.097V5.35L10.298.524H9.201L8.103 3.74 7.006.524H5.909zm6.036 2.144c-.586 0-.874.09-1.23.376-.344.284-.44.502-.417 1.232v2.68c0 .535.09.887.42 1.2.343.31.667.41 1.227.41.584 0 .904-.1 1.233-.411.344-.3.413-.663.413-1.198v-2.68c0-.473-.086-.923-.417-1.221-.344-.31-.697-.388-1.23-.388zm2.743 0v4.825c0 .521.538 1.072 1.098 1.072s.855-.275 1.097-.536v.536h1.098V2.668h-1.098v4.289c-.006.366-.448.536-.549.536-.114 0-.548-.023-.548-.536V2.668h-1.098zM11.945 3.74c.164 0 .548 0 .548.536v2.68c0 .52-.37.537-.548.537-.165 0-.55-.007-.55-.536v-2.68c0-.438.238-.537.55-.537zM4.262 9.637c-1.97 0-3.292 1.277-3.292 3.217v5.092c0 1.94 1.321 3.485 3.292 3.485h16.462c1.971 0 3.293-1.277 3.293-3.216v-5.361c0-1.94-1.322-3.217-3.293-3.217H4.262zm1.098 2.145h3.292v1.072H7.555v6.433H6.457v-6.433H5.36v-1.072zm7.682 0h1.097v2.144c.127-.193.316-.345.495-.431.177-.089.355-.138.533-.138.356 0 .637.124.827.36.191.237.34.55.34 1.013v3.216c0 .398-.137.645-.316.858-.176.21-.44.48-.781.483-.577.006-.886-.295-1.098-.536v.536h-1.097v-7.505zm-4.39 1.608H9.75v4.288c0 .124.147.54.548.537.446-.005.45-.412.55-.537V13.39h1.097v5.897h-1.098v-.536a1.387 1.387 0 0 1-.537.418c-.229.125-.459.118-.675.118-.266 0-.567-.235-.708-.41-.128-.162-.275-.327-.275-.662V13.39zm9.986 0c.521 0 .887.108 1.164.393.283.286.373.618.373 1.153v1.67h-2.194v.83c0 .298.041.49.119.603.075.123.228.178.43.176.222-.003.363-.046.439-.145.076-.088.109-.336.109-.66v-.268h1.097v.318c0 .586-.047 1.02-.341 1.305-.28.299-.715.437-1.284.437-.522 0-.929-.15-1.222-.46-.291-.31-.443-.734-.443-1.282v-2.524c0-.484.173-.844.493-1.165.256-.257.739-.381 1.26-.381zm-3.95.804a.564.564 0 0 0-.549.536v3.216c.005.155.246.269.55.269a.532.532 0 0 0 .548-.524v-2.693c0-.537-.246-.804-.549-.804zm3.841.268a.551.551 0 0 0-.548.536v.536h1.097v-.536c0-.33-.246-.536-.549-.536z"/>
</svg>
